<svg width="378" height="63" viewBox="0 0 378 63" fill="none" xmlns="http://www.w3.org/2000/svg">
<path d="M53.164 61H73.408L50.896 2.28399H23.176L0.748 61H20.908L25.36 49.492H48.712L53.164 61ZM30.568 35.8L37.036 19L43.504 35.8H30.568ZM138.286 15.976V2.28399H77.4695V61H138.286V47.308H96.2855V38.488H134.674V24.796H96.2855V15.976H138.286ZM179.159 2.28399H145.391V61H179.159C196.799 61 211.163 57.808 211.163 31.6C211.163 5.39199 196.799 2.28399 179.159 2.28399ZM164.207 47.308V15.976H179.159C186.383 15.976 192.263 17.656 192.263 31.6C192.263 45.544 186.383 47.308 179.159 47.308H164.207ZM236.559 61V2.28399H217.743V61H236.559ZM276.895 48.568C269.671 48.568 261.943 46.216 261.943 31.6C261.943 16.984 269.671 14.716 276.895 14.716C282.775 14.716 288.991 16.228 291.091 24.796H310.327C307.723 3.712 292.939 0.939997 276.895 0.939997C259.171 0.939997 243.127 4.216 243.127 31.6C243.127 58.9 259.171 62.344 276.895 62.344C292.939 62.344 307.723 59.488 310.327 38.488H291.091C288.991 46.972 282.775 48.568 276.895 48.568ZM377.325 15.976V2.28399H316.509V61H377.325V47.308H335.325V38.488H373.713V24.796H335.325V15.976H377.325Z" fill="white"/>
</svg>
