<svg width="109" height="27" viewBox="0 0 109 27" fill="none" xmlns="http://www.w3.org/2000/svg">
<path d="M14.662 17H19.964L14.068 1.622H6.808L0.934 17H6.214L7.38 13.986H13.496L14.662 17ZM8.744 10.4L10.438 6L12.132 10.4H8.744ZM36.9557 5.208V1.622H21.0277V17H36.9557V13.414H25.9557V11.104H36.0097V7.518H25.9557V5.208H36.9557ZM47.6608 1.622H38.8168V17H47.6608C52.2808 17 56.0428 16.164 56.0428 9.3C56.0428 2.436 52.2808 1.622 47.6608 1.622ZM43.7448 13.414V5.208H47.6608C49.5528 5.208 51.0928 5.648 51.0928 9.3C51.0928 12.952 49.5528 13.414 47.6608 13.414H43.7448ZM62.694 17V1.622H57.766V17H62.694ZM73.2583 13.744C71.3663 13.744 69.3423 13.128 69.3423 9.3C69.3423 5.472 71.3663 4.878 73.2583 4.878C74.7983 4.878 76.4263 5.274 76.9763 7.518H82.0143C81.3323 1.996 77.4603 1.27 73.2583 1.27C68.6163 1.27 64.4143 2.128 64.4143 9.3C64.4143 16.45 68.6163 17.352 73.2583 17.352C77.4603 17.352 81.3323 16.604 82.0143 11.104H76.9763C76.4263 13.326 74.7983 13.744 73.2583 13.744ZM99.5612 5.208V1.622H83.6332V17H99.5612V13.414H88.5612V11.104H98.6152V7.518H88.5612V5.208H99.5612ZM107.89 10.158V8.222H100.982V10.158H107.89Z" fill="white"/>
<path d="M61.36 22.018H62.14V25H61.36V22.018ZM63.286 22.66C63.062 22.66 62.868 22.704 62.704 22.792C62.54 22.876 62.408 22.98 62.308 23.104C62.208 23.228 62.138 23.348 62.098 23.464L62.092 23.134C62.096 23.086 62.112 23.016 62.14 22.924C62.168 22.828 62.21 22.726 62.266 22.618C62.322 22.506 62.396 22.4 62.488 22.3C62.58 22.196 62.692 22.112 62.824 22.048C62.956 21.984 63.11 21.952 63.286 21.952V22.66ZM66.4862 24.01H67.2422C67.2102 24.214 67.1242 24.396 66.9842 24.556C66.8482 24.716 66.6622 24.842 66.4262 24.934C66.1902 25.026 65.9022 25.072 65.5622 25.072C65.1822 25.072 64.8462 25.012 64.5542 24.892C64.2622 24.768 64.0342 24.59 63.8702 24.358C63.7062 24.126 63.6242 23.846 63.6242 23.518C63.6242 23.19 63.7042 22.91 63.8642 22.678C64.0242 22.442 64.2462 22.262 64.5302 22.138C64.8182 22.014 65.1542 21.952 65.5382 21.952C65.9302 21.952 66.2562 22.014 66.5162 22.138C66.7762 22.262 66.9682 22.45 67.0922 22.702C67.2202 22.95 67.2742 23.268 67.2542 23.656H64.4102C64.4302 23.808 64.4862 23.946 64.5782 24.07C64.6742 24.194 64.8022 24.292 64.9622 24.364C65.1262 24.436 65.3202 24.472 65.5442 24.472C65.7922 24.472 65.9982 24.43 66.1622 24.346C66.3302 24.258 66.4382 24.146 66.4862 24.01ZM65.5022 22.546C65.2142 22.546 64.9802 22.61 64.8002 22.738C64.6202 22.862 64.5042 23.016 64.4522 23.2H66.4802C66.4602 23 66.3642 22.842 66.1922 22.726C66.0242 22.606 65.7942 22.546 65.5022 22.546ZM69.2866 25.066C68.9906 25.066 68.7206 25.002 68.4766 24.874C68.2366 24.742 68.0446 24.56 67.9006 24.328C67.7606 24.092 67.6906 23.82 67.6906 23.512C67.6906 23.196 67.7626 22.922 67.9066 22.69C68.0506 22.458 68.2446 22.278 68.4886 22.15C68.7366 22.018 69.0166 21.952 69.3286 21.952C69.6726 21.952 69.9486 22.022 70.1566 22.162C70.3686 22.298 70.5226 22.484 70.6186 22.72C70.7146 22.956 70.7626 23.22 70.7626 23.512C70.7626 23.688 70.7346 23.868 70.6786 24.052C70.6226 24.232 70.5366 24.4 70.4206 24.556C70.3046 24.708 70.1526 24.832 69.9646 24.928C69.7766 25.02 69.5506 25.066 69.2866 25.066ZM69.5386 24.466C69.7746 24.466 69.9786 24.426 70.1506 24.346C70.3226 24.266 70.4546 24.154 70.5466 24.01C70.6386 23.866 70.6846 23.7 70.6846 23.512C70.6846 23.308 70.6366 23.136 70.5406 22.996C70.4486 22.852 70.3166 22.744 70.1446 22.672C69.9766 22.596 69.7746 22.558 69.5386 22.558C69.2066 22.558 68.9486 22.646 68.7646 22.822C68.5806 22.994 68.4886 23.224 68.4886 23.512C68.4886 23.704 68.5326 23.872 68.6206 24.016C68.7086 24.156 68.8306 24.266 68.9866 24.346C69.1466 24.426 69.3306 24.466 69.5386 24.466ZM70.6846 22.018H71.4646V25H70.7386C70.7386 25 70.7326 24.962 70.7206 24.886C70.7126 24.806 70.7046 24.706 70.6966 24.586C70.6886 24.466 70.6846 24.348 70.6846 24.232V22.018ZM72.2305 20.818H73.0105V25H72.2305V20.818ZM75.0367 22.018H77.3527V22.624H75.0367V22.018ZM75.8047 21.202H76.5847V25H75.8047V21.202ZM78.7423 20.71V21.394H77.8363V20.71H78.7423ZM77.8963 22.018H78.6763V25H77.8963V22.018ZM79.4538 22.018H80.2338V25H79.4538V22.018ZM81.6198 21.952C81.8038 21.952 81.9738 21.976 82.1298 22.024C82.2858 22.072 82.4218 22.146 82.5378 22.246C82.6538 22.346 82.7438 22.474 82.8078 22.63C82.8718 22.782 82.9038 22.964 82.9038 23.176V25H82.1237V23.314C82.1237 23.062 82.0618 22.878 81.9378 22.762C81.8178 22.642 81.6198 22.582 81.3438 22.582C81.1358 22.582 80.9478 22.622 80.7798 22.702C80.6118 22.782 80.4758 22.884 80.3718 23.008C80.2678 23.128 80.2078 23.254 80.1918 23.386L80.1858 23.08C80.2058 22.94 80.2518 22.804 80.3238 22.672C80.3958 22.54 80.4918 22.42 80.6118 22.312C80.7358 22.2 80.8818 22.112 81.0498 22.048C81.2178 21.984 81.4078 21.952 81.6198 21.952ZM84.2178 21.952C84.4018 21.952 84.5718 21.976 84.7278 22.024C84.8838 22.072 85.0198 22.146 85.1358 22.246C85.2518 22.346 85.3418 22.474 85.4058 22.63C85.4738 22.782 85.5078 22.964 85.5078 23.176V25H84.7278V23.314C84.7278 23.062 84.6658 22.878 84.5418 22.762C84.4178 22.642 84.2178 22.582 83.9418 22.582C83.7338 22.582 83.5458 22.622 83.3778 22.702C83.2098 22.782 83.0738 22.884 82.9698 23.008C82.8658 23.128 82.8078 23.254 82.7958 23.386L82.7838 23.062C82.8038 22.93 82.8518 22.798 82.9278 22.666C83.0038 22.534 83.1038 22.414 83.2278 22.306C83.3518 22.198 83.4958 22.112 83.6598 22.048C83.8278 21.984 84.0138 21.952 84.2178 21.952ZM88.9335 24.01H89.6895C89.6575 24.214 89.5715 24.396 89.4315 24.556C89.2955 24.716 89.1095 24.842 88.8735 24.934C88.6375 25.026 88.3495 25.072 88.0095 25.072C87.6295 25.072 87.2935 25.012 87.0015 24.892C86.7095 24.768 86.4815 24.59 86.3175 24.358C86.1535 24.126 86.0715 23.846 86.0715 23.518C86.0715 23.19 86.1515 22.91 86.3115 22.678C86.4715 22.442 86.6935 22.262 86.9775 22.138C87.2655 22.014 87.6015 21.952 87.9855 21.952C88.3775 21.952 88.7035 22.014 88.9635 22.138C89.2235 22.262 89.4155 22.45 89.5395 22.702C89.6675 22.95 89.7215 23.268 89.7015 23.656H86.8575C86.8775 23.808 86.9335 23.946 87.0255 24.07C87.1215 24.194 87.2495 24.292 87.4095 24.364C87.5735 24.436 87.7675 24.472 87.9915 24.472C88.2395 24.472 88.4455 24.43 88.6095 24.346C88.7775 24.258 88.8855 24.146 88.9335 24.01ZM87.9495 22.546C87.6615 22.546 87.4275 22.61 87.2475 22.738C87.0675 22.862 86.9515 23.016 86.8995 23.2H88.9275C88.9075 23 88.8115 22.842 88.6395 22.726C88.4715 22.606 88.2415 22.546 87.9495 22.546ZM95.2691 23.824C95.2491 24.084 95.1651 24.308 95.0171 24.496C94.8731 24.684 94.6731 24.828 94.4171 24.928C94.1611 25.024 93.8571 25.072 93.5051 25.072C93.1371 25.072 92.8071 25.014 92.5151 24.898C92.2271 24.778 91.9991 24.604 91.8311 24.376C91.6671 24.144 91.5851 23.858 91.5851 23.518C91.5851 23.178 91.6671 22.892 91.8311 22.66C91.9991 22.428 92.2271 22.252 92.5151 22.132C92.8071 22.012 93.1371 21.952 93.5051 21.952C93.8571 21.952 94.1591 22.002 94.4111 22.102C94.6631 22.198 94.8611 22.338 95.0051 22.522C95.1531 22.706 95.2391 22.928 95.2631 23.188H94.5491C94.4811 22.988 94.3551 22.832 94.1711 22.72C93.9871 22.608 93.7651 22.552 93.5051 22.552C93.2971 22.552 93.1071 22.588 92.9351 22.66C92.7671 22.732 92.6311 22.84 92.5271 22.984C92.4271 23.124 92.3771 23.302 92.3771 23.518C92.3771 23.73 92.4271 23.908 92.5271 24.052C92.6271 24.192 92.7631 24.298 92.9351 24.37C93.1071 24.438 93.2971 24.472 93.5051 24.472C93.7851 24.472 94.0131 24.416 94.1891 24.304C94.3691 24.192 94.4911 24.032 94.5551 23.824H95.2691ZM98.5664 25V23.362C98.5664 23.198 98.5384 23.062 98.4824 22.954C98.4264 22.846 98.3364 22.764 98.2124 22.708C98.0924 22.652 97.9304 22.624 97.7264 22.624C97.5304 22.624 97.3524 22.662 97.1924 22.738C97.0324 22.81 96.9024 22.906 96.8024 23.026C96.7024 23.142 96.6464 23.266 96.6344 23.398L96.6284 23.068C96.6484 22.936 96.6944 22.804 96.7664 22.672C96.8384 22.54 96.9344 22.42 97.0544 22.312C97.1744 22.204 97.3184 22.118 97.4864 22.054C97.6584 21.986 97.8504 21.952 98.0624 21.952C98.2464 21.952 98.4164 21.976 98.5724 22.024C98.7284 22.068 98.8644 22.138 98.9804 22.234C99.0964 22.33 99.1864 22.45 99.2504 22.594C99.3144 22.734 99.3464 22.9 99.3464 23.092V25H98.5664ZM95.8964 25V20.818H96.6764V25H95.8964ZM101.507 25.066C101.211 25.066 100.941 25.002 100.697 24.874C100.457 24.742 100.265 24.56 100.121 24.328C99.9813 24.092 99.9113 23.82 99.9113 23.512C99.9113 23.196 99.9833 22.922 100.127 22.69C100.271 22.458 100.465 22.278 100.709 22.15C100.957 22.018 101.237 21.952 101.549 21.952C101.893 21.952 102.169 22.022 102.377 22.162C102.589 22.298 102.743 22.484 102.839 22.72C102.935 22.956 102.983 23.22 102.983 23.512C102.983 23.688 102.955 23.868 102.899 24.052C102.843 24.232 102.757 24.4 102.641 24.556C102.525 24.708 102.373 24.832 102.185 24.928C101.997 25.02 101.771 25.066 101.507 25.066ZM101.759 24.466C101.995 24.466 102.199 24.426 102.371 24.346C102.543 24.266 102.675 24.154 102.767 24.01C102.859 23.866 102.905 23.7 102.905 23.512C102.905 23.308 102.857 23.136 102.761 22.996C102.669 22.852 102.537 22.744 102.365 22.672C102.197 22.596 101.995 22.558 101.759 22.558C101.427 22.558 101.169 22.646 100.985 22.822C100.801 22.994 100.709 23.224 100.709 23.512C100.709 23.704 100.753 23.872 100.841 24.016C100.929 24.156 101.051 24.266 101.207 24.346C101.367 24.426 101.551 24.466 101.759 24.466ZM102.905 22.018H103.685V25H102.959C102.959 25 102.953 24.962 102.941 24.886C102.933 24.806 102.925 24.706 102.917 24.586C102.909 24.466 102.905 24.348 102.905 24.232V22.018ZM104.181 22.018H106.497V22.624H104.181V22.018ZM104.949 21.202H105.729V25H104.949V21.202ZM107.694 24.316V25H106.788V24.316H107.694Z" fill="white"/>
</svg>
